<svg width="16" height="16" viewBox="0 0 16 16" fill="none" xmlns="http://www.w3.org/2000/svg">
<path fill-rule="evenodd" clip-rule="evenodd" d="M4 7.99999C4 7.86738 4.05268 7.74021 4.14645 7.64644C4.24021 7.55267 4.36739 7.49999 4.5 7.49999H10.293L8.146 5.35399C8.05211 5.2601 7.99937 5.13277 7.99937 4.99999C7.99937 4.86722 8.05211 4.73988 8.146 4.64599C8.23989 4.5521 8.36722 4.49936 8.5 4.49936C8.63278 4.49936 8.76011 4.5521 8.854 4.64599L11.854 7.64599C11.9006 7.69244 11.9375 7.74761 11.9627 7.80836C11.9879 7.8691 12.0009 7.93422 12.0009 7.99999C12.0009 8.06576 11.9879 8.13088 11.9627 8.19162C11.9375 8.25237 11.9006 8.30755 11.854 8.35399L8.854 11.354C8.76011 11.4479 8.63278 11.5006 8.5 11.5006C8.36722 11.5006 8.23989 11.4479 8.146 11.354C8.05211 11.2601 7.99937 11.1328 7.99937 11C7.99937 10.8672 8.05211 10.7399 8.146 10.646L10.293 8.49999H4.5C4.36739 8.49999 4.24021 8.44731 4.14645 8.35354C4.05268 8.25978 4 8.1326 4 7.99999Z" fill="white"/>
</svg>
