<svg width="57" height="57" viewBox="0 0 57 57" fill="none" xmlns="http://www.w3.org/2000/svg">
<path d="M45.7781 16.5656L33.3094 4.09687C32.9531 3.74062 32.5969 3.5625 32.0625 3.5625H14.25C12.2906 3.5625 10.6875 5.16562 10.6875 7.125V49.875C10.6875 51.8344 12.2906 53.4375 14.25 53.4375H42.75C44.7094 53.4375 46.3125 51.8344 46.3125 49.875V17.8125C46.3125 17.2781 46.1344 16.9219 45.7781 16.5656ZM32.0625 7.8375L42.0375 17.8125H32.0625V7.8375ZM42.75 49.875H14.25V7.125H28.5V17.8125C28.5 19.7719 30.1031 21.375 32.0625 21.375H42.75V49.875Z" fill="black"/>
<path d="M17.8125 39.1875H39.1875V42.75H17.8125V39.1875Z" fill="black"/>
<path d="M17.8125 28.5H39.1875V32.0625H17.8125V28.5Z" fill="black"/>
</svg>
