<svg width="47" height="47" viewBox="0 0 47 47" fill="none" xmlns="http://www.w3.org/2000/svg">
<path d="M43.4104 0.249688C43.6108 0.383747 43.7751 0.565085 43.8888 0.777691C44.0026 0.990298 44.0622 1.22763 44.0625 1.46875V23.5C44.0624 23.7933 43.9745 24.0799 43.8101 24.3228C43.6458 24.5657 43.4124 24.7539 43.1401 24.863L42.5938 23.5L43.1401 24.863L43.1313 24.8659L43.1137 24.8748L43.0461 24.9012C42.6599 25.0547 42.2711 25.2016 41.8799 25.3418C41.1044 25.6209 40.0264 25.9969 38.8044 26.3699C36.4074 27.1102 33.2848 27.9062 30.8438 27.9062C28.3557 27.9062 26.2965 27.0838 24.5046 26.3641L24.4224 26.3347C22.56 25.5856 20.9737 24.9688 19.0938 24.9688C17.0375 24.9688 14.2821 25.6444 11.9351 26.3699C10.8842 26.6975 9.84291 27.055 8.8125 27.4421V45.5312C8.8125 45.9208 8.65776 46.2944 8.38231 46.5698C8.10687 46.8453 7.73329 47 7.34375 47C6.95421 47 6.58063 46.8453 6.30519 46.5698C6.02974 46.2944 5.875 45.9208 5.875 45.5312V1.46875C5.875 1.07921 6.02974 0.705631 6.30519 0.430187C6.58063 0.154743 6.95421 0 7.34375 0C7.73329 0 8.10687 0.154743 8.38231 0.430187C8.65776 0.705631 8.8125 1.07921 8.8125 1.46875V2.29713C9.47637 2.06506 10.2695 1.79775 11.1331 1.53338C13.5301 0.799 16.6556 0 19.0938 0C21.5612 0 23.5705 0.813687 25.3242 1.52456L25.4505 1.57744C27.2776 2.31475 28.8698 2.9375 30.8438 2.9375C32.9 2.9375 35.6554 2.26187 38.0024 1.53631C39.3399 1.11864 40.6617 0.652242 41.9651 0.138062L42.0209 0.1175L42.0327 0.111625H42.0356L43.4104 0.249688ZM41.125 3.58669C40.4788 3.81581 39.715 4.07725 38.8749 4.33575C36.4955 5.076 33.3759 5.87206 30.8438 5.87206C28.2411 5.87206 26.1672 5.03194 24.3724 4.30344L24.3489 4.29463C22.5071 3.55438 20.9708 2.9375 19.0938 2.9375C17.1286 2.9375 14.3761 3.61019 11.9997 4.34163C10.9278 4.67234 9.86504 5.03182 8.8125 5.41969V24.3166C9.45875 24.0875 10.2225 23.8261 11.0626 23.5676C13.442 22.8244 16.5616 22.0312 19.0938 22.0312C21.5818 22.0312 23.641 22.8537 25.4329 23.5734L25.5151 23.6028C27.3775 24.3519 28.9638 24.9688 30.8438 24.9688C32.806 24.9688 35.5614 24.2961 37.9378 23.5646C39.0097 23.2339 40.0725 22.8744 41.125 22.4866V3.58963V3.58669Z" fill="black"/>
</svg>
