<svg width="59" height="59" viewBox="0 0 59 59" fill="none" xmlns="http://www.w3.org/2000/svg">
<path d="M47.9375 53.4688H47.624C11.3944 51.3853 6.2503 20.8159 5.53123 11.4866C5.47329 10.7612 5.55905 10.0315 5.7836 9.33935C6.00814 8.64718 6.36705 8.00612 6.83977 7.4529C7.3125 6.89968 7.88973 6.44517 8.53841 6.11542C9.18709 5.78567 9.89445 5.58716 10.62 5.53125H20.779C21.5176 5.53054 22.2393 5.7516 22.8507 6.1658C23.4622 6.58 23.9352 7.16826 24.2084 7.85438L27.0109 14.75C27.2808 15.4203 27.3477 16.1551 27.2035 16.8631C27.0593 17.5711 26.7102 18.2212 26.1997 18.7325L22.2725 22.6966C22.8859 26.1826 24.5554 29.3961 27.055 31.9023C29.5546 34.4085 32.7637 36.0864 36.2481 36.7091L40.249 32.745C40.7681 32.2401 41.4242 31.8992 42.1357 31.7648C42.8472 31.6303 43.5825 31.7083 44.25 31.9891L51.2009 34.7731C51.8767 35.055 52.4532 35.5317 52.8571 36.1424C53.261 36.7532 53.4739 37.4703 53.4687 38.2025V47.9375C53.4687 49.4045 52.886 50.8114 51.8487 51.8487C50.8114 52.886 49.4045 53.4687 47.9375 53.4688ZM11.0625 9.21875C10.5735 9.21875 10.1045 9.413 9.75876 9.75877C9.41299 10.1045 9.21873 10.5735 9.21873 11.0625V11.21C10.0669 22.125 15.5059 47.9375 47.8269 49.7812C48.0691 49.7962 48.3119 49.7632 48.5413 49.6842C48.7708 49.6051 48.9823 49.4815 49.1639 49.3205C49.3455 49.1595 49.4935 48.9642 49.5994 48.7458C49.7053 48.5275 49.7671 48.2904 49.7812 48.0481V38.2025L42.8303 35.4184L37.5387 40.6731L36.6537 40.5625C20.6131 38.5528 18.4375 22.5122 18.4375 22.3463L18.3269 21.4613L23.5631 16.1697L20.7975 9.21875H11.0625Z" fill="black"/>
</svg>
