<svg width="50" height="50" viewBox="0 0 50 50" fill="none" xmlns="http://www.w3.org/2000/svg">
<path d="M20.8334 8.33335C18.6232 8.33335 16.5036 9.21133 14.9408 10.7741C13.378 12.3369 12.5 14.4566 12.5 16.6667C12.5 18.8768 13.378 20.9964 14.9408 22.5592C16.5036 24.122 18.6232 25 20.8334 25C23.0435 25 25.1631 24.122 26.7259 22.5592C28.2887 20.9964 29.1667 18.8768 29.1667 16.6667C29.1667 14.4566 28.2887 12.3369 26.7259 10.7741C25.1631 9.21133 23.0435 8.33335 20.8334 8.33335ZM8.33335 16.6667C8.33335 13.3515 9.65031 10.1721 11.9945 7.82785C14.3387 5.48365 17.5181 4.16669 20.8334 4.16669C24.1486 4.16669 27.328 5.48365 29.6722 7.82785C32.0164 10.1721 33.3334 13.3515 33.3334 16.6667C33.3334 19.9819 32.0164 23.1613 29.6722 25.5055C27.328 27.8497 24.1486 29.1667 20.8334 29.1667C17.5181 29.1667 14.3387 27.8497 11.9945 25.5055C9.65031 23.1613 8.33335 19.9819 8.33335 16.6667V16.6667ZM35.0584 7.8271C35.2518 7.6334 35.4816 7.47974 35.7345 7.3749C35.9874 7.27005 36.2585 7.21609 36.5323 7.21609C36.8061 7.21609 37.0772 7.27005 37.3301 7.3749C37.583 7.47974 37.8128 7.6334 38.0063 7.8271C39.1672 8.98786 40.0882 10.3659 40.7165 11.8827C41.3448 13.3994 41.6682 15.025 41.6682 16.6667C41.6682 18.3084 41.3448 19.934 40.7165 21.4507C40.0882 22.9674 39.1672 24.3455 38.0063 25.5063C37.8127 25.6998 37.5829 25.8534 37.33 25.9581C37.0771 26.0629 36.8061 26.1168 36.5323 26.1168C36.2586 26.1168 35.9875 26.0629 35.7346 25.9581C35.4817 25.8534 35.2519 25.6998 35.0584 25.5063C34.8648 25.3127 34.7113 25.0829 34.6065 24.83C34.5017 24.5771 34.4478 24.3061 34.4478 24.0323C34.4478 23.7586 34.5017 23.4875 34.6065 23.2346C34.7113 22.9817 34.8648 22.7519 35.0584 22.5584C36.6206 20.9956 37.4982 18.8764 37.4982 16.6667C37.4982 14.457 36.6206 12.3378 35.0584 10.775C34.8647 10.5815 34.711 10.3518 34.6061 10.0989C34.5013 9.84594 34.4473 9.57484 34.4473 9.30106C34.4473 9.02728 34.5013 8.75618 34.6061 8.50327C34.711 8.25036 34.8647 8.02059 35.0584 7.8271V7.8271ZM36.5209 34.9104C36.6552 34.3749 36.9965 33.9147 37.47 33.6307C37.9434 33.3467 38.5102 33.2622 39.0459 33.3959C41.8125 34.0875 43.5646 35.8542 44.5709 37.8709C45.5459 39.8188 45.8334 41.9959 45.8334 43.75C45.8334 44.3026 45.6139 44.8325 45.2232 45.2232C44.8325 45.6139 44.3026 45.8334 43.75 45.8334C43.1975 45.8334 42.6676 45.6139 42.2769 45.2232C41.8862 44.8325 41.6667 44.3026 41.6667 43.75C41.6667 42.3813 41.4334 40.9104 40.8459 39.7334C40.2896 38.6229 39.4354 37.7875 38.0354 37.4375C37.4999 37.3032 37.0397 36.9619 36.7557 36.4884C36.4717 36.015 36.3872 35.4482 36.5209 34.9125V34.9104ZM13.5417 37.5C10.9167 37.5 8.33335 40.0271 8.33335 43.75C8.33335 44.3026 8.11386 44.8325 7.72316 45.2232C7.33246 45.6139 6.80255 45.8334 6.25002 45.8334C5.69749 45.8334 5.16758 45.6139 4.77688 45.2232C4.38618 44.8325 4.16669 44.3026 4.16669 43.75C4.16669 38.2667 8.11044 33.3334 13.5417 33.3334H28.125C33.5563 33.3334 37.5 38.2667 37.5 43.75C37.5 44.3026 37.2805 44.8325 36.8898 45.2232C36.4991 45.6139 35.9692 45.8334 35.4167 45.8334C34.8642 45.8334 34.3342 45.6139 33.9435 45.2232C33.5528 44.8325 33.3334 44.3026 33.3334 43.75C33.3334 40.0271 30.75 37.5 28.125 37.5H13.5417Z" fill="#99C00E"/>
</svg>
